Coordinates
version=1
nRows=7
nColumns=40
inDegrees=yes

Units are S.I. units (second, meters, Newtons, ...)
If the header above contains a line with 'inDegrees', this indicates whether rotational values are in degrees (yes) or radians (no).

endheader
time	pelvis_tilt	pelvis_list	pelvis_rotation	pelvis_tx	pelvis_ty	pelvis_tz	hip_flexion_r	hip_adduction_r	hip_rotation_r	knee_angle_r	knee_angle_r_beta	ankle_angle_r	subtalar_angle_r	mtp_angle_r	hip_flexion_l	hip_adduction_l	hip_rotation_l	knee_angle_l	knee_angle_l_beta	ankle_angle_l	subtalar_angle_l	mtp_angle_l	lumbar_extension	lumbar_bending	lumbar_rotation	arm_flex_r	arm_add_r	arm_rot_r	elbow_flex_r	pro_sup_r	wrist_flex_r	wrist_dev_r	arm_flex_l	arm_add_l	arm_rot_l	elbow_flex_l	pro_sup_l	wrist_flex_l	wrist_dev_l
      1.05000000	     -2.54798793	      6.42919264	    -89.70038107	      0.19730827	      0.92228736	      0.32982760	      6.72168555	      6.09236111	      1.05902819	      5.56979672	      0.09721129	      8.05781549	      0.00000000	      0.00000000	     34.67400590	     -8.72135883	     -3.54446296	     67.21221180	      1.17307439	      2.96924911	      0.00000000	      0.00000000	     -3.34718211	      2.61632514	     -4.54232849	      0.00000000	      0.00000000	      0.00000000	      0.00000000	      0.00000000	      0.00000000	      0.00000000	      0.00000000	      0.00000000	      0.00000000	      0.00000000	      0.00000000	      0.00000000	      0.00000000
      1.06000000	     -2.20207396	      6.43766401	    -89.73924217	      0.19736320	      0.92263014	      0.34255943	      4.93210656	      5.75041772	      1.94864424	      3.90920554	      0.06822851	      8.16121531	      0.00000000	      0.00000000	     35.77470713	     -8.17723896	     -3.54826247	     65.05021099	      1.13534036	      3.68952506	      0.00000000	      0.00000000	     -3.41801809	      2.20316480	     -4.05869407	      0.00000000	      0.00000000	      0.00000000	      0.00000000	      0.00000000	      0.00000000	      0.00000000	      0.00000000	      0.00000000	      0.00000000	      0.00000000	      0.00000000	      0.00000000	      0.00000000
      1.07000000	     -2.03270709	      6.37100362	    -89.76850867	      0.19745145	      0.92265803	      0.35529036	      3.27549300	      5.56572933	      2.10716476	      2.64926844	      0.04623846	      8.29957518	      0.00000000	     -0.00000000	     36.67125998	     -7.81718542	     -3.47330103	     62.56840527	      1.09202468	      4.07534539	     -0.00000000	      0.00000000	     -3.57853139	      2.00541072	     -3.74519329	      0.00000000	     -0.00000000	      0.00000000	      0.00000000	      0.00000000	      0.00000000	      0.00000000	      0.00000000	     -0.00000000	      0.00000000	      0.00000000	      0.00000000	      0.00000000	     -0.00000000
      1.08000000	     -2.30961491	      6.72439489	    -89.76951708	      0.19738782	      0.92138660	      0.36744427	      2.46502603	      5.86657523	      1.42841392	      2.05459984	      0.03585953	      8.55082685	      0.00000000	      0.00000000	     38.13175716	     -7.90562453	     -3.10286664	     60.10367515	      1.04900702	      4.43401788	      0.00000000	      0.00000000	     -3.30326681	      2.36058583	     -3.70297428	      0.00000000	      0.00000000	      0.00000000	      0.00000000	      0.00000000	      0.00000000	      0.00000000	      0.00000000	      0.00000000	      0.00000000	      0.00000000	      0.00000000	      0.00000000	      0.00000000
      1.09000000	     -1.88478670	      6.33110620	    -89.80768078	      0.19771721	      0.92132981	      0.38068323	      0.25911100	      5.38320418	      2.18026205	      0.50428229	      0.00880139	      8.76344185	      0.00000000	      0.00000000	     38.24368574	     -7.28133485	     -3.24165759	     56.89833690	      0.99306332	      4.39799290	      0.00000000	      0.00000000	     -3.83583127	      1.85373819	     -3.26633226	      0.00000000	      0.00000000	      0.00000000	      0.00000000	      0.00000000	      0.00000000	      0.00000000	      0.00000000	      0.00000000	      0.00000000	      0.00000000	      0.00000000	      0.00000000	      0.00000000
      1.10000000	     -1.90452133	      6.42280129	    -89.82611314	      0.19789845	      0.91992337	      0.39334644	     -1.05622971	      5.38588093	      2.23757272	     -0.41710610	     -0.00727987	      9.09945713	      0.00000000	      0.00000000	     38.99035271	     -7.09730884	     -3.07598142	     53.72103205	      0.93760889	      4.36325711	      0.00000000	      0.00000000	     -3.83633647	      1.88720651	     -2.96246271	      0.00000000	      0.00000000	      0.00000000	      0.00000000	      0.00000000	      0.00000000	      0.00000000	      0.00000000	      0.00000000	      0.00000000	      0.00000000	      0.00000000	      0.00000000	      0.00000000
      1.11000000	     -1.97876203	      6.46950122	    -89.84063569	      0.19809392	      0.91825782	      0.40609254	     -2.39822169	      5.44944958	      2.32207368	     -1.28117224	     -0.02236067	      9.46402916	      0.00000000	      0.00000000	     39.55449353	     -6.97447570	     -2.90315661	     50.28967866	      0.87772047	      4.14525536	      0.00000000	      0.00000000	     -3.89440859	      1.97278253	     -2.69075233	      0.00000000	      0.00000000	      0.00000000	      0.00000000	      0.00000000	      0.00000000	      0.00000000	      0.00000000	      0.00000000	      0.00000000	      0.00000000	      0.00000000	      0.00000000	      0.00000000
